<svg xmlns="http://www.w3.org/2000/svg" viewBox="0 0 64 64">
  <defs>
    <linearGradient id="g" x1="0" x2="1" y1="0" y2="1">
      <stop offset="0%" stop-color="#3b82f6"/>
      <stop offset="100%" stop-color="#14b8a6"/>
    </linearGradient>
  </defs>
  <rect width="64" height="64" rx="18" fill="#0f172a"/>
  <path d="M32 12c3.3 0 6 2.7 6 6v6h6c3.3 0 6 2.7 6 6s-2.7 6-6 6h-6v6c0 3.3-2.7 6-6 6s-6-2.7-6-6v-6h-6c-3.3 0-6-2.7-6-6s2.7-6 6-6h6v-6c0-3.3 2.7-6 6-6z" fill="url(#g)" opacity="0.95"/>
  <circle cx="32" cy="32" r="20" fill="none" stroke="rgba(255,255,255,0.18)" stroke-width="2"/>
</svg>
